# xmcd
#
# Track frame offsets:
#	150
#	19869
#	36869
#	56263
#	83000
#	98976
#	125401
#	148315
#	175639
#	194011
#	213193
#	232114
#	256386
#	285153
#
# Disc length: 3995 seconds
#
# Revision: 1
# Processed by: cddbd v1.5.2PL0 Copyright (c) Steve Scherf et al.
# Submitted via: audiograbber 1.83.01
#
DISCID=c20f990e
DTITLE=Shiwa 2000 - Runkmeditation and Perstantra
DYEAR=2006
DGENRE=Psychadelic
TTITLE0=Jazz Zoo
TTITLE1=L‰‰kitys Kohallaan
TTITLE2=Bluez Like Me
TTITLE3=Nenaeongelma
TTITLE4=Rofereggae
TTITLE5=Kenguru
TTITLE6=Hansson
TTITLE7=Indiaano
TTITLE8=Zappapappa
TTITLE9=Rekkamiehen Pastilli
TTITLE10=Batargah
TTITLE11=Merkababa (Sienis Rmx)
TTITLE12=Didgie Hero (Egosentrifug Remix)
TTITLE13=Hidden Track
EXTD=TR.
EXTT0=
EXTT1=
EXTT2=
EXTT3=
EXTT4=
EXTT5=
EXTT6=
EXTT7=
EXTT8=
EXTT9=
EXTT10=
EXTT11=
EXTT12=
EXTT13=
PLAYORDER=
